<svg width="1280" height="640" viewBox="0 0 1280 640" xmlns="http://www.w3.org/2000/svg" role="img">
<title>Alayra Nexus - The Enterprise AI Gateway</title>
<defs>
<linearGradient id="bg" x1="0" y1="0" x2="1" y2="1">
<stop offset="0%" stop-color="#08121c"/><stop offset="55%" stop-color="#0b1622"/><stop offset="100%" stop-color="#0d1e2b"/>
</linearGradient>
<radialGradient id="glow" cx="50%" cy="50%" r="50%">
<stop offset="0%" stop-color="#22d3ee" stop-opacity="0.16"/>
<stop offset="60%" stop-color="#22d3ee" stop-opacity="0.05"/>
<stop offset="100%" stop-color="#22d3ee" stop-opacity="0"/>
</radialGradient>
<pattern id="dots" width="28" height="28" patternUnits="userSpaceOnUse">
<circle cx="1.6" cy="1.6" r="1.1" fill="#3ce8e5" fill-opacity="0.07"/>
</pattern>
</defs>
<rect width="1280" height="640" fill="url(#bg)"/>
<rect width="1280" height="640" fill="url(#dots)"/>
<circle cx="640" cy="235" r="380" fill="url(#glow)"/>
<g><path d="M0 120 C 200 140, 300 200, 430 228" fill="none" stroke="#22d3ee" stroke-width="1.2" stroke-opacity="0.20"/><path d="M0 180 C 220 190, 320 215, 432 232" fill="none" stroke="#22d3ee" stroke-width="1.2" stroke-opacity="0.20"/><path d="M0 235 C 200 235, 320 235, 434 235" fill="none" stroke="#22d3ee" stroke-width="1.2" stroke-opacity="0.20"/><path d="M0 290 C 220 280, 320 255, 432 238" fill="none" stroke="#22d3ee" stroke-width="1.2" stroke-opacity="0.20"/><path d="M0 350 C 200 330, 300 270, 430 242" fill="none" stroke="#22d3ee" stroke-width="1.2" stroke-opacity="0.20"/><circle cx="6" cy="120" r="2.4" fill="#3ce8e5" fill-opacity="0.5"/><circle cx="6" cy="180" r="2.4" fill="#3ce8e5" fill-opacity="0.5"/><circle cx="6" cy="235" r="2.4" fill="#3ce8e5" fill-opacity="0.5"/><circle cx="6" cy="290" r="2.4" fill="#3ce8e5" fill-opacity="0.5"/><circle cx="6" cy="350" r="2.4" fill="#3ce8e5" fill-opacity="0.5"/></g><g transform="translate(1280 0) scale(-1 1)"><path d="M0 120 C 200 140, 300 200, 430 228" fill="none" stroke="#22d3ee" stroke-width="1.2" stroke-opacity="0.20"/><path d="M0 180 C 220 190, 320 215, 432 232" fill="none" stroke="#22d3ee" stroke-width="1.2" stroke-opacity="0.20"/><path d="M0 235 C 200 235, 320 235, 434 235" fill="none" stroke="#22d3ee" stroke-width="1.2" stroke-opacity="0.20"/><path d="M0 290 C 220 280, 320 255, 432 238" fill="none" stroke="#22d3ee" stroke-width="1.2" stroke-opacity="0.20"/><path d="M0 350 C 200 330, 300 270, 430 242" fill="none" stroke="#22d3ee" stroke-width="1.2" stroke-opacity="0.20"/><circle cx="6" cy="120" r="2.4" fill="#3ce8e5" fill-opacity="0.5"/><circle cx="6" cy="180" r="2.4" fill="#3ce8e5" fill-opacity="0.5"/><circle cx="6" cy="235" r="2.4" fill="#3ce8e5" fill-opacity="0.5"/><circle cx="6" cy="290" r="2.4" fill="#3ce8e5" fill-opacity="0.5"/><circle cx="6" cy="350" r="2.4" fill="#3ce8e5" fill-opacity="0.5"/></g>
<g transform="translate(215.00 10.00) scale(1.25)">


<defs>
<path id="ca" d="M340 66 C 286 100, 292 154, 340 174" fill="none"/>
<path id="ba" d="M340 98 C 388 120, 384 158, 340 173" fill="none"/>
<line id="tk" x1="340" y1="32" x2="340" y2="40"/>
<line id="tkM" x1="340" y1="30" x2="340" y2="44"/>
</defs>

<circle cx="340" cy="180" r="158" fill="#0b1622"/>
<circle cx="340" cy="180" r="158" fill="none" stroke="#173042" stroke-width="1"/>
<circle cx="340" cy="180" r="151" fill="none" stroke="#3a2f1c" stroke-width="0.8"/>

<g stroke="#3ce8e5" stroke-width="1" stroke-opacity="0.5">
<use href="#tk"/><use href="#tk" transform="rotate(15 340 180)"/><use href="#tk" transform="rotate(30 340 180)"/><use href="#tk" transform="rotate(45 340 180)"/>
<use href="#tk" transform="rotate(75 340 180)"/><use href="#tk" transform="rotate(105 340 180)"/><use href="#tk" transform="rotate(120 340 180)"/><use href="#tk" transform="rotate(135 340 180)"/>
<use href="#tk" transform="rotate(165 340 180)"/><use href="#tk" transform="rotate(195 340 180)"/><use href="#tk" transform="rotate(210 340 180)"/><use href="#tk" transform="rotate(225 340 180)"/>
<use href="#tk" transform="rotate(255 340 180)"/><use href="#tk" transform="rotate(285 340 180)"/><use href="#tk" transform="rotate(300 340 180)"/><use href="#tk" transform="rotate(315 340 180)"/><use href="#tk" transform="rotate(345 340 180)"/>
</g>
<g stroke="#d9b477" stroke-width="1.4" stroke-opacity="0.85">
<use href="#tkM" transform="rotate(60 340 180)"/><use href="#tkM" transform="rotate(90 340 180)"/><use href="#tkM" transform="rotate(150 340 180)"/>
<use href="#tkM" transform="rotate(180 340 180)"/><use href="#tkM" transform="rotate(240 340 180)"/><use href="#tkM" transform="rotate(270 340 180)"/><use href="#tkM" transform="rotate(330 340 180)"/><use href="#tkM"/>
</g>

<circle cx="340" cy="180" r="126" fill="none" stroke="#b8863f" stroke-width="1" stroke-opacity="0.7"/>
<circle cx="340" cy="180" r="119" fill="none" stroke="#22d3ee" stroke-width="0.8" stroke-opacity="0.55"/>

<g stroke="#b8863f" stroke-width="7" stroke-opacity="0.14" stroke-linecap="round" transform="rotate(30 340 180)">
<use href="#ba"/><use href="#ba" transform="rotate(60 340 180)"/><use href="#ba" transform="rotate(120 340 180)"/><use href="#ba" transform="rotate(180 340 180)"/><use href="#ba" transform="rotate(240 340 180)"/><use href="#ba" transform="rotate(300 340 180)"/>
</g>
<g stroke="#e6c98f" stroke-width="2" stroke-opacity="0.9" stroke-linecap="round" transform="rotate(30 340 180)">
<use href="#ba"/><use href="#ba" transform="rotate(60 340 180)"/><use href="#ba" transform="rotate(120 340 180)"/><use href="#ba" transform="rotate(180 340 180)"/><use href="#ba" transform="rotate(240 340 180)"/><use href="#ba" transform="rotate(300 340 180)"/>
</g>

<g stroke="#22d3ee" stroke-width="11" stroke-opacity="0.15" stroke-linecap="round">
<use href="#ca"/><use href="#ca" transform="rotate(60 340 180)"/><use href="#ca" transform="rotate(120 340 180)"/><use href="#ca" transform="rotate(180 340 180)"/><use href="#ca" transform="rotate(240 340 180)"/><use href="#ca" transform="rotate(300 340 180)"/>
</g>
<g stroke="#22d3ee" stroke-width="4.5" stroke-opacity="0.5" stroke-linecap="round">
<use href="#ca"/><use href="#ca" transform="rotate(60 340 180)"/><use href="#ca" transform="rotate(120 340 180)"/><use href="#ca" transform="rotate(180 340 180)"/><use href="#ca" transform="rotate(240 340 180)"/><use href="#ca" transform="rotate(300 340 180)"/>
</g>
<g stroke="#5df0ee" stroke-width="2" stroke-linecap="round">
<use href="#ca"/><use href="#ca" transform="rotate(60 340 180)"/><use href="#ca" transform="rotate(120 340 180)"/><use href="#ca" transform="rotate(180 340 180)"/><use href="#ca" transform="rotate(240 340 180)"/><use href="#ca" transform="rotate(300 340 180)"/>
</g>

<g fill="#e6c98f">
<g transform="rotate(30 340 180)"><g transform="translate(340 98)"><circle r="3.2"/></g></g>
<g transform="rotate(90 340 180)"><g transform="translate(340 98)"><circle r="3.2"/></g></g>
<g transform="rotate(150 340 180)"><g transform="translate(340 98)"><circle r="3.2"/></g></g>
<g transform="rotate(210 340 180)"><g transform="translate(340 98)"><circle r="3.2"/></g></g>
<g transform="rotate(270 340 180)"><g transform="translate(340 98)"><circle r="3.2"/></g></g>
<g transform="rotate(330 340 180)"><g transform="translate(340 98)"><circle r="3.2"/></g></g>
</g>
<g fill="#8ff8f5">
<g transform="translate(340 62)"><circle r="4.5"/></g>
<g transform="rotate(60 340 180)"><g transform="translate(340 62)"><circle r="4.5"/></g></g>
<g transform="rotate(120 340 180)"><g transform="translate(340 62)"><circle r="4.5"/></g></g>
<g transform="rotate(180 340 180)"><g transform="translate(340 62)"><circle r="4.5"/></g></g>
<g transform="rotate(240 340 180)"><g transform="translate(340 62)"><circle r="4.5"/></g></g>
<g transform="rotate(300 340 180)"><g transform="translate(340 62)"><circle r="4.5"/></g></g>
</g>

<circle cx="340" cy="180" r="34" fill="#22d3ee" fill-opacity="0.12"/>
<polygon points="340,156 356.97,163.03 340,180" fill="#16394a"/>
<polygon points="356.97,163.03 364,180 340,180" fill="#0e2432"/>
<polygon points="364,180 356.97,196.97 340,180" fill="#16394a"/>
<polygon points="356.97,196.97 340,204 340,180" fill="#0e2432"/>
<polygon points="340,204 323.03,196.97 340,180" fill="#16394a"/>
<polygon points="323.03,196.97 316,180 340,180" fill="#0e2432"/>
<polygon points="316,180 323.03,163.03 340,180" fill="#16394a"/>
<polygon points="323.03,163.03 340,156 340,180" fill="#0e2432"/>
<polygon points="340,156 356.97,163.03 364,180 356.97,196.97 340,204 323.03,196.97 316,180 323.03,163.03" fill="none" stroke="#5df0ee" stroke-width="2"/>
<polygon points="340,163 351,168 355,180 351,192 340,197 329,192 325,180 329,168" fill="none" stroke="#d9b477" stroke-width="1" stroke-opacity="0.85"/>
<circle cx="340" cy="180" r="6.5" fill="#aef9f6"/>
<circle cx="340" cy="180" r="12" fill="none" stroke="#8ff8f5" stroke-width="1" stroke-opacity="0.55"/>
</g>
<text x="640" y="502" text-anchor="middle" font-family="Segoe UI, Segoe UI Semibold, Arial, sans-serif" font-size="54" font-weight="600" letter-spacing="8"><tspan fill="#c9a15f">ALAYRA</tspan><tspan fill="#3f5a63"> &#183; </tspan><tspan fill="#4ecfd6">NEXUS</tspan></text>
<line x1="390" y1="526" x2="890" y2="526" stroke="#c9a15f" stroke-width="1" stroke-opacity="0.45"/>
<text x="640" y="566" text-anchor="middle" font-family="Segoe UI, Segoe UI Semibold, Arial, sans-serif" font-size="26" fill="#7fa9b8" letter-spacing="1">The Enterprise AI Gateway</text>
<text x="640" y="602" text-anchor="middle" font-family="Segoe UI, Segoe UI Semibold, Arial, sans-serif" font-size="18" fill="#4f7382" letter-spacing="0">One OpenAI-compatible endpoint. Every model. Zero key chaos.</text>
</svg>
